<svg id="Layer_1" data-name="Layer 1" xmlns="http://www.w3.org/2000/svg" viewBox="0 0 283.46 283.46"><defs><style>.cls-1{fill:#4e79f2;}.cls-2{fill:#35efac;}.cls-3{fill:#fff;}</style></defs><title>Untitled-2</title><circle class="cls-1" cx="141.73" cy="141.73" r="136.46"/><circle class="cls-2" cx="141.73" cy="141.73" r="133.66"/><circle class="cls-1" cx="141.73" cy="141.73" r="130.08"/><path class="cls-3" d="M52,150.56a3.62,3.62,0,0,1,2.83.62,3.64,3.64,0,1,1-5.72,3.58,3.44,3.44,0,0,1,.65-2.78A3.51,3.51,0,0,1,52,150.56Z"/><path class="cls-3" d="M84.58,56,97.2,71.53,93.68,74.4,85.15,64l7.12,11.6-2.5,2-9.8-9,8.32,10.22-3.52,2.87L72.15,66.17l5.21-4.24c.92.8,2,1.76,3.16,2.9l3.79,3.47-5-8Z"/><path class="cls-3" d="M104.47,45.5l2,13.15,3.1,6.53-4.35,2.07-3.1-6.55-8.75-10,4.32-2q3.51,4.81,4.51,6.58c-.66-2.05-1.34-4.63-2.06-7.74Z"/><path class="cls-3" d="M137.16,38.57l8.81,0v4l-3.6,0,0,3.79,3.21,0,0,3.8-3.21,0,0,8.39-5.19,0Z"/><path class="cls-3" d="M165.31,53.23c-.4,2-.73,3.35-1,4.15a4.8,4.8,0,0,1-3.62,3.22,7.14,7.14,0,0,1-3-.05A7.29,7.29,0,0,1,155,59.47a4.79,4.79,0,0,1-2.15-4.37,39.75,39.75,0,0,1,.71-4.27l.68-3.35c.4-2,.73-3.35,1-4.15a4.76,4.76,0,0,1,3.62-3.22,7.35,7.35,0,0,1,3,0,7.72,7.72,0,0,1,2.72,1.09,4.76,4.76,0,0,1,1.7,1.95,4.92,4.92,0,0,1,.45,2.43q-.11,1.23-.72,4.26Zm-3.78-7.47a6.32,6.32,0,0,0,.2-1.78.62.62,0,0,0-.54-.51.73.73,0,0,0-.68.19,4.56,4.56,0,0,0-.58,1.77l-1.86,9.15a9.22,9.22,0,0,0-.29,2.13.62.62,0,0,0,.57.53.65.65,0,0,0,.76-.32,11,11,0,0,0,.59-2.16Z"/><path class="cls-3" d="M178.2,45.23l3.35,1.52A28.34,28.34,0,0,1,186,49.08a3.42,3.42,0,0,1,1.33,2.2,6.5,6.5,0,0,1-.8,3.72,5.91,5.91,0,0,1-1.83,2.62,3.09,3.09,0,0,1-2.48-.07,4,4,0,0,1,1.47,1.78,3.14,3.14,0,0,1,.11,1.35,18.36,18.36,0,0,1-1.11,2.74l-2.19,4.8-4.39-2,2.76-6a4.56,4.56,0,0,0,.59-1.91q-.07-.45-1-.9l-3.74,8.2-4.72-2.16Zm3.31,5.26-1.85,4a2.26,2.26,0,0,0,1.22.3c.28,0,.6-.48,1-1.28l.46-1a1.71,1.71,0,0,0,.21-1.28A2,2,0,0,0,181.51,50.49Z"/><path class="cls-3" d="M211.21,66.05l-12.62,15.5-3.52-2.87,8.51-10.47-9.92,9.33-2.5-2L198,64.08l-8.33,10.21-3.52-2.86,12.61-15.5L204,60.17c-.6,1.06-1.33,2.29-2.2,3.69l-2.63,4.41L206,61.79Z"/><path class="cls-3" d="M230.21,157.61a3.67,3.67,0,0,1-3.07-4.22,3.65,3.65,0,0,1,7.19,1.21,3.41,3.41,0,0,1-1.54,2.41A3.61,3.61,0,0,1,230.21,157.61Z"/><path class="cls-3" d="M112.71,225.37l-4.4-2,.61-1.35a2.9,2.9,0,0,0,.38-1.28.71.71,0,0,0-.45-.51.77.77,0,0,0-.8.06,2.13,2.13,0,0,0-.7,1,3.15,3.15,0,0,0-.37,1.48,3.81,3.81,0,0,0,.84,1.72,14.73,14.73,0,0,1,2.59,4.88,7.73,7.73,0,0,1-.92,4.25,7.43,7.43,0,0,1-1.75,2.66,3.88,3.88,0,0,1-2.46.76A8.47,8.47,0,0,1,99,234.08a3.86,3.86,0,0,1-.94-2.63,10.25,10.25,0,0,1,1-3.34l.54-1.2,4.4,2-1,2.22a3.26,3.26,0,0,0-.41,1.4.79.79,0,0,0,.53.59.87.87,0,0,0,.87,0,2.53,2.53,0,0,0,.73-1,3.72,3.72,0,0,0,.5-2.31,15.26,15.26,0,0,0-1.47-2.65,24.46,24.46,0,0,1-1.57-2.75,4.27,4.27,0,0,1-.3-1.89,7.22,7.22,0,0,1,.7-2.56,7.44,7.44,0,0,1,1.91-2.82,3.94,3.94,0,0,1,2.41-.73,7.46,7.46,0,0,1,3.13.75,8.19,8.19,0,0,1,2.88,2,3.6,3.6,0,0,1,1,2.28,8.66,8.66,0,0,1-1,3.26Z"/><path class="cls-3" d="M132,224.18l-.84,3.91-3-.66-3.4,15.62-5.07-1.11,3.39-15.61-3-.66.85-3.91Z"/><path class="cls-3" d="M146.17,224.91l2.6,20-5.31-.1-.21-3.59-1.86,0L141,244.8l-5.37-.1,3-19.93Zm-3,12.79c-.22-2.27-.44-5.06-.64-8.4q-.9,5.73-1.15,8.37Z"/><path class="cls-3" d="M164,222.67l.69,3.94-3,.52,2.72,15.75-5.12.89L156.48,228l-3,.53-.68-4Z"/><path class="cls-3" d="M169.84,220.91l8.1-3.09,1.41,3.74-3.23,1.23,1.34,3.55,3-1.16,1.35,3.55-3,1.16,1.56,4.1,3.57-1.35,1.42,3.74-8.42,3.2Z"/><rect class="cls-3" x="114.81" y="90.79" width="21.72" height="7.09" rx="3.55"/><rect x="138.72" y="90.79" width="28.33" height="7.09" rx="3.55"/><rect class="cls-2" x="101.13" y="102.57" width="80.19" height="7.09" rx="3.55"/><rect class="cls-2" x="106.27" y="114.34" width="40.98" height="7.09" rx="3.55"/><rect x="92.78" y="113.88" width="11.87" height="7.09" rx="3.55"/><rect class="cls-3" x="150.03" y="113.88" width="40.37" height="7.09" rx="3.55"/><rect class="cls-3" x="130.64" y="125.65" width="64.62" height="7.09" rx="3.55"/><rect class="cls-2" x="88.95" y="126.12" width="38.55" height="7.09" rx="3.55"/><rect class="cls-3" x="149.62" y="185.12" width="19.77" height="7.09" rx="3.55" transform="translate(319.01 377.32) rotate(-180)"/><rect class="cls-2" x="116.25" y="185.58" width="30.01" height="7.09" rx="3.55" transform="translate(262.52 378.25) rotate(-180)"/><rect x="102.89" y="173.34" width="80.19" height="7.09" rx="3.55" transform="translate(285.96 353.77) rotate(-180)"/><rect class="cls-2" x="137.77" y="162.03" width="38.41" height="7.09" rx="3.55" transform="translate(313.96 331.15) rotate(-180)"/><rect class="cls-3" x="178.89" y="161.57" width="13" height="7.09" rx="3.55" transform="translate(370.78 330.22) rotate(180)"/><rect class="cls-2" x="93.81" y="162.03" width="41.66" height="7.09" rx="3.55" transform="translate(229.27 331.15) rotate(-180)"/><rect class="cls-3" x="89.41" y="149.79" width="66.4" height="7.09" rx="3.55" transform="translate(245.22 306.67) rotate(180)"/><rect class="cls-2" x="157.58" y="150.26" width="37.22" height="7.09" rx="3.55" transform="translate(352.37 307.6) rotate(180)"/><rect x="116.9" y="137.43" width="57" height="7.09" rx="3.55"/><rect class="cls-2" x="176.38" y="137.89" width="20.56" height="7.09" rx="3.55"/><rect class="cls-2" x="86.53" y="137.89" width="27.24" height="7.09" rx="3.55"/></svg>